<?xml version="1.0" standalone="no"?><!DOCTYPE svg PUBLIC "-//W3C//DTD SVG 1.1//EN" "http://www.w3.org/Graphics/SVG/1.1/DTD/svg11.dtd"><svg t="1681720601016" class="icon" viewBox="0 0 1026 1024" version="1.1" xmlns="http://www.w3.org/2000/svg" p-id="13954" xmlns:xlink="http://www.w3.org/1999/xlink" width="128.25" height="128"><path d="M736.723376 463.897557H762.681301a60.8807 60.8807 0 0 1 60.880701 60.8807A60.8807 60.8807 0 0 1 762.681301 585.658957h-25.42271" fill="#A4CFF2" p-id="13955"></path><path d="M762.681301 599.039331h-25.42271v-26.760747H762.681301a47.500327 47.500327 0 1 0 0-95.000654h-25.42271v-26.760747H762.681301a74.261074 74.261074 0 0 1 0 148.522148z" fill="#4C4372" p-id="13956"></path><path d="M289.952698 463.897557h-25.288906a60.8807 60.8807 0 0 0-60.8807 60.8807 60.8807 60.8807 0 0 0 60.8807 60.8807h25.288906" fill="#A4CFF2" p-id="13957"></path><path d="M289.952698 599.039331h-25.288906a74.261074 74.261074 0 0 1 0-148.522148h25.288906v26.760747h-25.288906a47.500327 47.500327 0 0 0 0 95.000654h25.288906z" fill="#4C4372" p-id="13958"></path><path d="M736.589573 345.88266v233.621325A221.9804 221.9804 0 0 1 514.609173 801.484385a221.9804 221.9804 0 0 1-221.9804-221.9804V329.826212" fill="#7AABF1" p-id="13959"></path><path d="M514.609173 814.864759a235.628381 235.628381 0 0 1-235.360774-235.360774V329.826212h26.760748v249.677773a208.600026 208.600026 0 1 0 417.200052 0V345.88266h26.760747v233.621325A235.628381 235.628381 0 0 1 514.609173 814.864759z" fill="#4C4372" p-id="13960"></path><path d="M681.194826 222.515615H339.593885a76.803345 76.803345 0 0 0-76.803345 76.669541 76.535738 76.535738 0 0 0 59.007448 74.662485 5.753561 5.753561 0 0 0 7.091598-5.619757 23.014243 23.014243 0 0 1 23.014243-23.014242 23.014243 23.014243 0 0 1 22.746635 23.014242 7.760617 7.760617 0 0 0 7.760617 7.760617h3.345093a7.760617 7.760617 0 0 0 7.760617-7.760617 23.014243 23.014243 0 0 1 23.014243-23.014242 23.014243 23.014243 0 0 1 23.014242 23.014242 7.626813 7.626813 0 0 0 7.626813 7.760617h3.345094a7.760617 7.760617 0 0 0 7.760617-7.760617A23.014243 23.014243 0 0 1 481.693454 345.213642a23.014243 23.014243 0 0 1 23.014242 23.014242 7.760617 7.760617 0 0 0 7.626813 7.760617h4.014112a7.225402 7.225402 0 0 0 7.091599-7.225402 23.683261 23.683261 0 0 1 22.479027-23.549457 23.014243 23.014243 0 0 1 23.549458 23.014242 7.760617 7.760617 0 0 0 7.760617 7.760617h3.880308a7.225402 7.225402 0 0 0 7.225402-7.225402 23.014243 23.014243 0 1 1 46.028486 0 7.626813 7.626813 0 0 0 7.626813 7.760617h3.345093a7.760617 7.760617 0 0 0 7.760617-7.760617 23.014243 23.014243 0 0 1 23.014243-23.014242 23.014243 23.014243 0 0 1 23.014242 23.014242 4.28172 4.28172 0 0 0 5.485954 4.147916 76.937149 76.937149 0 0 0 53.521494-73.190644 76.803345 76.803345 0 0 0-76.937148-77.204756z" fill="#E7677C" p-id="13961"></path><path d="M645.20162 389.368875H642.257938a21.007187 21.007187 0 0 1-21.007187-21.140991 9.366262 9.366262 0 0 0-2.943682-6.82399 10.436691 10.436691 0 0 0-6.957794-2.809879 9.901477 9.901477 0 0 0-9.366262 10.169084 20.605776 20.605776 0 0 1-20.605775 20.605776h-3.880309a21.14099 21.14099 0 0 1-21.14099-21.140991 8.96485 8.96485 0 0 0-2.943682-6.82399 10.169084 10.169084 0 0 0-6.957795-2.809879 10.436691 10.436691 0 0 0-9.366261 10.169084 20.605776 20.605776 0 0 1-20.471972 20.605776h-4.014112a21.14099 21.14099 0 0 1-21.007187-21.140991 9.633869 9.633869 0 0 0-19.267738 0 21.14099 21.14099 0 0 1-21.140991 21.140991h-3.345093a21.007187 21.007187 0 0 1-21.007187-21.140991 9.633869 9.633869 0 1 0-19.267738 0 21.14099 21.14099 0 0 1-21.14099 21.140991h-3.746505a21.14099 21.14099 0 0 1-21.408598-21.140991 9.633869 9.633869 0 0 0-19.267738 0 19.535346 19.535346 0 0 1-7.493009 15.119823 19.401542 19.401542 0 0 1-16.324056 3.612701 90.183719 90.183719 0 0 1 20.873383-177.825167h342.136156A90.049915 90.049915 0 0 1 709.159807 385.087155a17.52829 17.52829 0 0 1-15.788841-2.542271 17.795897 17.795897 0 0 1-7.225402-14.317 9.633869 9.633869 0 0 0-19.267738 0 21.14099 21.14099 0 0 1-21.676206 21.140991zM339.593885 235.895989a63.422971 63.422971 0 0 0-22.746636 122.564223 36.394616 36.394616 0 0 1 66.901869-6.823991 36.52842 36.52842 0 0 1 64.894812 0 36.394616 36.394616 0 0 1 64.894813 0 36.796028 36.796028 0 0 1 31.310074-20.07056 36.127009 36.127009 0 0 1 33.450935 20.07056 36.662224 36.662224 0 0 1 31.310074-20.07056 35.859402 35.859402 0 0 1 26.760748 10.302887 34.521364 34.521364 0 0 1 7.091598 9.500066 36.394616 36.394616 0 0 1 66.901868 4.014112 63.289168 63.289168 0 0 0-28.901607-119.754345zM608.405593 711.568274H413.854959a13.380374 13.380374 0 0 1 0-26.760748h194.550634a13.380374 13.380374 0 0 1 0 26.760748z" fill="#4C4372" p-id="13962"></path><path d="M445.566445 730.03319a13.380374 13.380374 0 0 1-13.380374-13.380374v-38.000261a13.380374 13.380374 0 0 1 26.760747 0v38.000261a13.380374 13.380374 0 0 1-13.380373 13.380374zM511.665491 738.195218a13.380374 13.380374 0 0 1-13.380374-13.380374v-47.098916a13.380374 13.380374 0 0 1 26.760747 0v47.098916a13.380374 13.380374 0 0 1-13.380373 13.380374zM577.630733 727.357115a13.380374 13.380374 0 0 1-13.380374-13.380374v-32.781915a13.380374 13.380374 0 0 1 26.760748 0v32.781915a13.380374 13.380374 0 0 1-13.380374 13.380374zM735.920554 427.235333H294.368222a13.380374 13.380374 0 0 1 0-26.760748h441.552332a13.380374 13.380374 0 0 1 0 26.760748z" fill="#4C4372" p-id="13963"></path><path d="M346.016464 453.728472a13.380374 13.380374 0 0 1-13.380374-13.380373V393.382987a13.380374 13.380374 0 0 1 26.760748 0v46.965112a13.380374 13.380374 0 0 1-13.380374 13.380373zM411.981707 445.566445a13.380374 13.380374 0 0 1-13.380374-13.380374v-38.000262a13.380374 13.380374 0 0 1 26.760747 0v38.000262a13.380374 13.380374 0 0 1-13.380373 13.380374zM477.946949 453.728472a13.380374 13.380374 0 0 1-13.380374-13.380373V393.382987a13.380374 13.380374 0 0 1 26.760748 0v46.965112a13.380374 13.380374 0 0 1-13.380374 13.380373zM543.912191 442.89037a13.380374 13.380374 0 0 1-13.380373-13.380374v-32.648112a13.380374 13.380374 0 0 1 26.760747 0v32.648112a13.380374 13.380374 0 0 1-13.380374 13.380374zM610.011237 453.728472a13.380374 13.380374 0 0 1-13.380373-13.380373V393.382987a13.380374 13.380374 0 0 1 26.760747 0v46.965112a13.380374 13.380374 0 0 1-13.380374 13.380373zM675.97648 453.728472a13.380374 13.380374 0 0 1-13.380374-13.380373V393.382987a13.380374 13.380374 0 0 1 26.760748 0v46.965112a13.380374 13.380374 0 0 1-13.380374 13.380373z" fill="#4C4372" p-id="13964"></path><path d="M612.018293 538.827649m-58.338429 0a58.338429 58.338429 0 1 0 116.676859 0 58.338429 58.338429 0 1 0-116.676859 0Z" fill="#F0C48A" p-id="13965"></path><path d="M612.018293 610.546452a71.718803 71.718803 0 1 1 71.718804-71.718803 71.718803 71.718803 0 0 1-71.718804 71.718803z m0-116.676858a44.958056 44.958056 0 1 0 44.958056 44.958055 45.091859 45.091859 0 0 0-44.958056-44.958055z" fill="#4C4372" p-id="13966"></path><path d="M643.06076 583.384294a13.380374 13.380374 0 0 1-9.366261-4.014112l-62.218738-62.084934a13.380374 13.380374 0 0 1 0-19.000131 13.380374 13.380374 0 0 1 18.866327 0l62.218738 62.218738a13.380374 13.380374 0 0 1 0 18.866327 13.380374 13.380374 0 0 1-9.500066 4.014112z" fill="#4C4372" p-id="13967"></path><path d="M580.842023 583.384294a13.380374 13.380374 0 0 1-9.366262-4.014112 13.380374 13.380374 0 0 1 0-18.866327l62.218738-62.218738a13.380374 13.380374 0 0 1 18.866327 0 13.380374 13.380374 0 0 1 0 19.000131l-62.218738 62.084934a13.380374 13.380374 0 0 1-9.500065 4.014112z" fill="#4C4372" p-id="13968"></path><path d="M410.777473 538.827649m-58.338429 0a58.338429 58.338429 0 1 0 116.676858 0 58.338429 58.338429 0 1 0-116.676858 0Z" fill="#F0C48A" p-id="13969"></path><path d="M410.777473 610.546452a71.718803 71.718803 0 1 1 71.718803-71.718803 71.852607 71.852607 0 0 1-71.718803 71.718803z m0-116.676858a44.958056 44.958056 0 1 0 44.958056 44.958055 45.091859 45.091859 0 0 0-44.958056-44.958055z" fill="#4C4372" p-id="13970"></path><path d="M441.552332 583.384294a13.380374 13.380374 0 0 1-9.500065-4.014112l-62.218738-62.084934a13.380374 13.380374 0 0 1 19.000131-19.000131l62.218738 62.218738a13.380374 13.380374 0 0 1 0 18.866327 13.380374 13.380374 0 0 1-9.500066 4.014112z" fill="#4C4372" p-id="13971"></path><path d="M379.735006 583.384294a13.380374 13.380374 0 0 1-9.500065-22.880439l62.218737-62.218738a13.380374 13.380374 0 0 1 19.000131 19.000131l-62.218738 62.084934a13.380374 13.380374 0 0 1-9.500065 4.014112z" fill="#4C4372" p-id="13972"></path></svg>