<?xml version="1.0" standalone="no"?><!DOCTYPE svg PUBLIC "-//W3C//DTD SVG 1.1//EN" "http://www.w3.org/Graphics/SVG/1.1/DTD/svg11.dtd"><svg t="1681720619423" class="icon" viewBox="0 0 1024 1024" version="1.1" xmlns="http://www.w3.org/2000/svg" p-id="14454" xmlns:xlink="http://www.w3.org/1999/xlink" width="128" height="128"><path d="M872.40704 759.46496c0 37.61152-14.67392 73.24672-48.8192 147.03104H334.65856c-46.0544-78.94528-73.41568-109.41952-73.41568-147.03104V299.17184c0-37.6064 27.36128-68.08576 61.11744-68.08576h488.92928c33.76128 0 61.12256 30.48448 61.12256 68.08576v460.29312z" fill="#99CF17" p-id="14455"></path><path d="M768.24064 918.79424H279.31136a18.45248 18.45248 0 0 1-15.93344-9.14944c-12.05248-20.66944-22.76352-37.888-32.20992-53.07904-27.264-43.85792-43.71968-70.3232-43.71968-103.24992v-460.288c0-47.71328 35.69152-86.53824 79.5648-86.53824h488.92928c43.87328 0 79.56992 38.82496 79.56992 86.53824v460.288c0 41.28256-15.40096 78.85824-50.52928 154.7776a18.45248 18.45248 0 0 1-16.7424 10.7008z m-478.37696-36.89472h466.56512c29.27104-63.6672 42.18368-96.41472 42.18368-128.58368v-460.288c0-27.37152-19.14368-49.6384-42.6752-49.6384H267.01312c-23.5264 0-42.66496 22.26688-42.66496 49.6384v460.288c0 22.38464 13.55264 44.19072 38.15936 83.7632 8.15104 13.11744 17.23392 27.72992 27.35616 44.82048z" fill="#2E0C08" p-id="14456"></path><path d="M144.40448 820.40832H78.81216a18.44736 18.44736 0 0 1-18.45248-18.44736v-163.98336a18.44736 18.44736 0 0 1 18.45248-18.45248h61.4912a18.44736 18.44736 0 0 1 18.39616 17.02912l2.7904 36.26496h32.10752a18.44736 18.44736 0 0 1 0 36.89984h-49.19296a18.44736 18.44736 0 0 1-18.39616-17.02912l-2.7904-36.26496h-25.9584v127.08864H125.952v-34.85184a18.44736 18.44736 0 0 1 18.45248-18.44736h49.19296a18.44736 18.44736 0 1 1 0 36.89984h-30.7456v34.85184a18.44224 18.44224 0 0 1-18.44736 18.44224zM941.77792 820.40832H876.1856a18.44224 18.44224 0 0 1-18.45248-18.44736v-34.85184h-30.7456a18.44736 18.44736 0 1 1 0-36.89984h49.19296a18.44224 18.44224 0 0 1 18.44736 18.44736v34.85184h28.6976v-127.08864h-25.9584l-2.79552 36.26496a18.44224 18.44224 0 0 1-18.39104 17.02912h-49.19296a18.44736 18.44736 0 1 1 0-36.89984h32.10752l2.7904-36.26496A18.44736 18.44736 0 0 1 880.2816 619.52h61.49632a18.44224 18.44224 0 0 1 18.44736 18.45248v163.98336a18.44224 18.44224 0 0 1-18.44736 18.45248zM279.69024 506.79296h184.48384s-20.39808 87.51616-98.39104 86.0928c-56.3712-1.02912-86.0928-86.0928-86.0928-86.0928zM554.35776 506.79296h184.48384s-20.39808 87.51616-98.39104 86.0928c-56.3712-1.02912-86.0928-86.0928-86.0928-86.0928zM455.97184 646.17984l53.29408-49.19296 53.29408 49.19296zM652.75904 750.71488H357.58592a18.44736 18.44736 0 0 1 0-36.89984h295.17312a18.44736 18.44736 0 1 1 0 36.89984zM808.54016 426.84928h-0.26112L205.6448 418.64704a18.44736 18.44736 0 0 1 0.50688-36.8896l602.63424 8.20224a18.45248 18.45248 0 0 1-0.24576 36.8896z" fill="#2E0C08" p-id="14457"></path><path d="M332.98944 467.84a18.44736 18.44736 0 0 1-18.44736-18.44736V359.20896a18.44736 18.44736 0 1 1 36.89472 0v90.1888a18.44736 18.44736 0 0 1-18.44736 18.44224zM421.12512 459.64288a18.44736 18.44736 0 0 1-18.44736-18.44736V351.00672a18.44736 18.44736 0 1 1 36.89984 0v90.19392a18.45248 18.45248 0 0 1-18.45248 18.44224zM554.368 457.6a18.44736 18.44736 0 0 1-18.45248-18.44736V344.85248a18.44736 18.44736 0 1 1 36.89984 0v94.29504a18.44736 18.44736 0 0 1-18.44736 18.45248zM677.35552 461.69088a18.45248 18.45248 0 0 1-18.45248-18.44736V353.05984c0-10.1888 8.25856-18.44736 18.45248-18.44736s18.45248 8.25856 18.45248 18.44736v90.1888a18.45248 18.45248 0 0 1-18.45248 18.44224z" fill="#2E0C08" p-id="14458"></path><path d="M171.05408 346.91072c-28.6976-43.04896-7.2192-115.89632 23.57248-159.88736 35.87072-51.24608 70.72256-80.96768 273.64864-80.96768 202.9312 0 284.92288-2.048 334.11584 50.22208s106.58816 194.72896 25.6256 209.08032c-23.56224 4.1728-44.14976-8.64768-47.14496-33.82272-5.12512-43.04384-36.89984-46.12096-39.97696-18.44736s-35.87072 34.8416-45.09184 1.01888c-9.22624-33.8176-1.02912-51.24096-30.75072-47.13984-32.95232 4.54656-16.9216 52.27008-43.04384 52.27008-23.57248 0-11.27424-44.07296-47.14496-43.04384-18.69312 0.53248-18.45248 37.9136-38.94272 37.9136-18.69824 0-31.77472-7.168-37.92384-44.06272-6.14912-36.89984-42.01984-26.65472-45.09696 4.096s-9.22624 53.2992-39.97184 36.89984c-19.3536-10.32704-5.12-31.7696-13.32736-44.06784-8.20224-12.29824-42.01984-19.47648-39.97184 12.29824 2.77504 42.9568-27.6736 58.4192-44.07296 34.8416-22.89152-32.90624-14.34624-71.73632-38.94272-53.28896s-22.84032 80.29184-36.89472 92.24192c-20.49536 17.41824-39.97184 36.8896-68.66432-6.15424z" fill="#2E0C08" p-id="14459"></path></svg>