<?xml version="1.0" standalone="no"?><!DOCTYPE svg PUBLIC "-//W3C//DTD SVG 1.1//EN" "http://www.w3.org/Graphics/SVG/1.1/DTD/svg11.dtd"><svg t="1681720615111" class="icon" viewBox="0 0 1024 1024" version="1.1" xmlns="http://www.w3.org/2000/svg" p-id="14297" xmlns:xlink="http://www.w3.org/1999/xlink" width="128" height="128"><path d="M512 64c-176 0-320 144-320 320v512c0 35.2 28.8 63.9 63.9 63.9h0.1c35.2 0 63.9-28.8 63.9-63.9v-0.1c0-35.2 28.8-63.9 63.9-63.9h0.2c35.2 0 63.9 28.8 63.9 63.9v0.1c0 35.2 28.8 63.9 63.9 63.9h0.1c35.2 0 63.9-28.8 63.9-63.9v-0.1c0-35.2 28.8-63.9 63.9-63.9h0.2c35.2 0 63.9 28.8 63.9 63.9v0.1c0 35.2 28.8 63.9 63.9 63.9h0.1c35.2 0 63.9-28.8 63.9-63.9V384C832 208 688 64 512 64z m-58.5 480c0 35.2-28.8 64-64 64s-64-28.8-64-64v-64c0-35.2 28.8-64 64-64s64 28.8 64 64v64z m260.5 0c0 35.2-28.8 64-64 64s-64-28.8-64-64v-64c0-35.2 28.8-64 64-64s64 28.8 64 64v64z" p-id="14298"></path><path d="M389.5 512m-19.2 0a19.2 19.2 0 1 0 38.4 0 19.2 19.2 0 1 0-38.4 0Z" p-id="14299"></path><path d="M650 512m-19.2 0a19.2 19.2 0 1 0 38.4 0 19.2 19.2 0 1 0-38.4 0Z" p-id="14300"></path></svg>