<?xml version="1.0" standalone="no"?><!DOCTYPE svg PUBLIC "-//W3C//DTD SVG 1.1//EN" "http://www.w3.org/Graphics/SVG/1.1/DTD/svg11.dtd"><svg class="icon" width="128px" height="128.00px" viewBox="0 0 1024 1024" version="1.1" xmlns="http://www.w3.org/2000/svg"><path d="M864 480h-8V112c0-44-36-80-80-80H248c-44 0-80 36-80 80v368c-57.6 0-104 46.4-104 104s46.4 104 104 104h29.6c52.8 120 169.6 205.6 308 208 144 2.4 268.8-84 321.6-208h36c57.6 0 104-46.4 104-104s-45.6-104-103.2-104z" fill="#6AC689" /><path d="M576 992H472c-13.6 0-24-10.4-24-24v-80h128v104z" fill="#6AC689" /><path d="M368 560m-80 0a80 80 0 1 0 160 0 80 80 0 1 0-160 0Z" fill="#479E62" /><path d="M656 560m-80 0a80 80 0 1 0 160 0 80 80 0 1 0-160 0Z" fill="#479E62" /><path d="M776 8H248c-57.6 0-104 46.4-104 104v258.4c0 13.6 10.4 24 24 24s24-10.4 24-24V232c0-13.6 10.4-24 24-24h46.4c6.4 0 12.8-2.4 16.8-7.2l56-56c9.6-9.6 24.8-9.6 33.6 0l46.4 46.4c9.6 9.6 24.8 9.6 33.6 0l46.4-46.4c9.6-9.6 24.8-9.6 33.6 0l46.4 46.4c9.6 9.6 24.8 9.6 33.6 0l46.4-46.4c9.6-9.6 24.8-9.6 33.6 0l56 56c4.8 4.8 10.4 7.2 16.8 7.2h46.4c13.6 0 24 10.4 24 24v144c0 13.6 10.4 24 24 24s24-10.4 24-24V112c0-57.6-46.4-104-104-104zM592 760H432c-13.6 0-24-10.4-24-24s10.4-24 24-24h160c13.6 0 24 10.4 24 24s-10.4 24-24 24z" fill="#444B54" /><path d="M864 456c-15.2 0-26.4 13.6-23.2 29.6 2.4 11.2 12.8 18.4 24.8 18.4 44.8 0.8 80.8 38.4 78.4 84-2.4 43.2-39.2 76-82.4 76H830.4c-10.4-0.8-20 4.8-24 14.4C755.2 796 640 872 512 872c-128.8 0-244-76-294.4-194.4-4.8-11.2-17.6-16.8-28.8-13.6h-17.6C128 664 90.4 631.2 88 588c-2.4-45.6 33.6-83.2 78.4-84 11.2 0 22.4-7.2 24.8-18.4 3.2-15.2-8.8-29.6-23.2-29.6-72.8 0-131.2 60.8-128 134.4 3.2 68.8 63.2 121.6 132 121.6h8.8c61.6 127.2 189.6 208 331.2 208 10.4 0 20.8-0.8 31.2-1.6 4.8 0 8.8 3.2 8.8 8v40.8c0 12 8 22.4 19.2 24.8 15.2 3.2 28.8-8.8 28.8-23.2v-52.8c0-4 2.4-6.4 5.6-8 102.4-27.2 190.4-97.6 237.6-196h16.8c68.8 0 128-52.8 131.2-121.6 4-73.6-54.4-134.4-127.2-134.4z" fill="#444B54" /><path d="M168 584m-24 0a24 24 0 1 0 48 0 24 24 0 1 0-48 0Z" fill="#479E62" /><path d="M864 584m-24 0a24 24 0 1 0 48 0 24 24 0 1 0-48 0Z" fill="#479E62" /><path d="M368 944h-56c0-13.6-10.4-24-24-24s-24 10.4-24 24v48c0 13.6 10.4 24 24 24s24-10.4 24-24h56c13.6 0 24-10.4 24-24s-10.4-24-24-24zM736 920c-13.6 0-24 10.4-24 24h-56c-13.6 0-24 10.4-24 24s10.4 24 24 24h56c0 13.6 10.4 24 24 24s24-10.4 24-24v-48c0-13.6-10.4-24-24-24z" fill="#444B54" /><path d="M268 344H248c-13.6 0-24-10.4-24-24s10.4-24 24-24h20c13.6 0 24 10.4 24 24s-10.4 24-24 24zM649.6 344h-18.4c-13.6 0-24-10.4-24-24s10.4-24 24-24h18.4c13.6 0 24 10.4 24 24s-10.4 24-24 24z m-124 0h-26.4c-13.6 0-24-10.4-24-24s10.4-24 24-24h26.4c13.6 0 24 10.4 24 24s-11.2 24-24 24z m-132.8 0h-18.4c-13.6 0-24-10.4-24-24s10.4-24 24-24h18.4c13.6 0 24 10.4 24 24s-11.2 24-24 24zM776 344h-20c-13.6 0-24-10.4-24-24s10.4-24 24-24H776c13.6 0 24 10.4 24 24s-10.4 24-24 24z" fill="#479E62" /><path d="M390.4 560c5.6 0 9.6 5.6 8 10.4-4 12.8-16 21.6-30.4 21.6s-26.4-8.8-30.4-21.6c-1.6-4.8 2.4-10.4 8-10.4h44.8zM678.4 560c5.6 0 9.6 5.6 8 10.4-4 12.8-16 21.6-30.4 21.6s-26.4-8.8-30.4-21.6c-1.6-4.8 2.4-10.4 8-10.4h44.8z" fill="#FFFFFF" /><path d="M579.2 864c-11.2 0-20.8-7.2-23.2-18.4-3.2-12.8 4.8-25.6 17.6-28.8 59.2-13.6 113.6-48 151.2-96 8-10.4 23.2-12 33.6-4 10.4 8 12 23.2 4 33.6-44.8 56.8-108 96.8-178.4 112.8-1.6 0.8-3.2 0.8-4.8 0.8z" fill="#479E62" /></svg>